<svg width="273" height="64" viewBox="0 0 273 64" fill="none" xmlns="http://www.w3.org/2000/svg">
<path d="M27.4553 61.8599C26.4074 62.1594 25.4093 62.3091 24.4612 62.3091C23.5131 62.359 22.54 62.4089 21.5419 62.4588C20.5938 62.5087 19.2714 62.5336 17.5747 62.5336C15.8781 62.5336 13.3331 62.4837 9.93974 62.3839C9.14131 62.4338 8.34288 62.4588 7.54444 62.4588C6.74601 62.4588 5.99748 62.3091 5.29886 62.0096C3.7519 61.3609 2.70396 59.8639 2.15503 57.5185C1.90552 56.4206 1.63106 55.6471 1.33165 55.198C0.982339 54.7489 0.707878 54.3247 0.50827 53.9255C0.00925085 53.1271 0.0591528 51.8047 0.657976 49.9583C1.2069 48.112 1.93048 45.8414 2.82871 43.1467C3.72695 40.4021 4.74994 37.5078 5.89768 34.4638C8.59239 27.228 11.0126 21.4893 13.1584 17.2476C14.0067 15.3513 14.7303 13.7046 15.3291 12.3073C15.9779 10.9101 16.5517 9.71241 17.0508 8.71437C17.5498 7.66643 17.7993 7.11751 17.7993 7.06761C18.2983 5.17134 20.2195 3.57447 23.563 2.27703C26.8066 0.929673 29.7508 0.58036 32.3956 1.22909C35.3398 1.97761 36.6373 3.92379 36.288 7.06761C35.5893 10.1615 34.5414 13.2555 33.1441 16.3494C31.7968 19.4433 30.2498 22.6869 28.5033 26.0803C26.7567 29.4736 24.8604 33.0665 22.8144 36.8591C20.7685 40.6516 18.7474 44.7685 16.7514 49.2098C16.7015 49.4094 16.8013 49.5841 17.0508 49.7338C17.6995 49.6839 18.5977 49.4843 19.7455 49.1349C20.9431 48.7856 22.1657 48.4862 23.4133 48.2367C24.7107 47.9373 25.9832 47.7876 27.2308 47.7876C28.4783 47.7876 29.5263 48.112 30.3746 48.7607C30.3247 49.6589 30.5492 50.3825 31.0483 50.9314C31.5473 51.4304 32.0463 51.9295 32.5453 52.4285C33.7929 53.7259 33.8927 55.4475 32.8447 57.5933C31.8467 59.6892 30.0502 61.1114 27.4553 61.8599Z" fill="#102429"/>
<path d="M53.3392 48.8355C56.2335 49.1349 58.3793 49.2847 59.7766 49.2847C61.2237 49.2847 63.3945 49.085 66.2888 48.6858C67.187 48.9852 67.711 49.3595 67.8607 49.8086C68.0104 50.2577 68.0603 50.7318 68.0104 51.2308C67.9605 51.6799 67.9854 52.1291 68.0852 52.5782C68.1851 53.0273 68.6591 53.4016 69.5075 53.701C69.9566 53.8507 70.0813 54.2998 69.8817 55.0483C69.732 55.747 69.3328 56.5204 68.6841 57.3688C67.0373 59.5145 65.0911 61.0116 62.8455 61.8599C59.2526 62.7582 56.4331 63.2821 54.3872 63.4319C50.9938 63.6814 47.3011 63.5566 43.3089 63.0576C38.9176 62.2592 36.7967 60.4377 36.9464 57.5933C36.9464 47.1139 39.2419 36.5846 43.8329 26.0054C45.33 22.5622 47.0266 18.9443 48.9229 15.1517C49.3221 14.3533 49.5467 13.4551 49.5966 12.457C49.6964 11.459 49.7712 10.4859 49.8211 9.53776C49.871 8.58962 50.0207 7.74129 50.2703 6.99276C50.5198 6.24423 51.0437 5.72026 51.8422 5.42085C62.2218 1.27899 70.4306 -0.317875 76.4688 0.630261C78.5647 0.680162 79.937 1.40374 80.5857 2.80099C81.2843 4.14835 81.3592 5.67036 80.8102 7.36703C80.3112 9.06369 79.2882 10.6606 77.7413 12.1576C76.2442 13.6547 74.3479 14.5779 72.0525 14.9272C69.1082 15.7755 67.3118 16.3494 66.663 16.6488C65.4155 17.2476 64.5173 18.046 63.9683 19.0441C63.2697 20.1419 62.621 21.1899 62.0222 22.1879C61.4233 23.1859 60.9992 24.2588 60.7497 25.4066L60.4502 27.0533C61.3984 27.5025 62.5461 27.6522 63.8935 27.5025C65.2907 27.3028 66.5632 27.1282 67.711 26.9785C68.9086 26.7789 69.8568 26.7539 70.5554 26.9036C71.3039 27.0533 71.4536 27.8019 71.0045 29.1492C70.6053 30.4467 69.8318 31.9188 68.6841 33.5655C67.5862 35.2123 66.0143 36.41 63.9683 37.1585C62.6709 37.408 61.7727 37.6076 61.2736 37.7573C60.8245 37.8571 60.4752 37.932 60.2257 37.9819C59.8764 38.0318 58.8783 38.1066 57.2316 38.2064C54.8862 42.1986 53.464 45.2925 52.965 47.4882C52.7654 48.3864 52.8901 48.8355 53.3392 48.8355Z" fill="#102429"/>
<path d="M105.094 3.62438C105.593 4.97173 105.867 5.86997 105.917 6.31908C106.017 7.26722 105.667 8.06565 104.869 8.71437C104.869 8.76428 104.819 8.83913 104.719 8.93893C105.168 11.2843 105.268 13.48 105.019 15.526C104.769 17.572 104.445 19.5431 104.046 21.4394C106.74 16.8484 108.886 13.48 110.483 11.3342C113.777 6.89295 116.845 3.72418 119.69 1.82791C120.638 1.27899 121.786 0.879771 123.133 0.630261C124.53 0.33085 125.853 0.280949 127.1 0.480557C128.348 0.680165 129.371 1.17918 130.169 1.97761C131.018 2.77604 131.392 3.97369 131.292 5.57055C129.895 15.3014 128.398 24.3836 126.801 32.817C125.204 41.2005 123.133 49.2098 120.588 56.8448V56.9945H120.513C119.914 58.791 118.417 60.0635 116.022 60.812C113.677 61.5106 111.581 61.5605 109.734 60.9617C107.489 60.313 106.466 59.1153 106.665 57.3688L106.74 55.6472V55.4974C106.94 54.2998 107.04 53.5014 107.04 53.1021C107.09 52.653 107.14 52.3287 107.189 52.1291C107.289 50.8316 107.489 49.634 107.788 48.5361C108.138 47.3884 108.387 46.4652 108.537 45.7666C108.687 45.0679 108.836 44.4192 108.986 43.8204C109.136 43.1717 109.235 42.6726 109.285 42.3233C107.389 44.9182 106.042 46.4901 105.243 47.0391C103.247 48.4363 100.927 49.085 98.282 48.9852C96.6352 48.8854 95.6871 48.5112 95.4375 47.8624C94.9385 46.4652 94.5892 45.6418 94.3896 45.3923C94.0902 44.9931 93.8407 44.3194 93.6411 43.3713C92.3436 49.11 91.0711 53.177 89.8236 55.5723C89.3246 56.5204 88.8255 57.3688 88.3265 58.1173C87.6279 59.7641 86.031 60.9118 83.5359 61.5605C81.1906 62.2093 78.945 62.1594 76.7992 61.4108C74.6035 60.7122 73.5555 59.4646 73.6554 57.6682C73.7552 55.8717 74.1294 53.6261 74.7781 50.9314C75.377 48.1868 76.1005 45.2925 76.9489 42.2485C79.4939 32.6174 81.2904 26.3547 82.3383 23.4604C83.4361 20.5661 84.3593 18.2955 85.1079 16.6488C86.9043 12.8063 88.5012 10.0118 89.8984 8.26526C91.4454 5.12144 94.0154 3.22516 97.6083 2.57644C100.453 2.02752 102.948 2.37683 105.094 3.62438Z" fill="#102429"/>
<path d="M142.625 8.71437C145.769 5.12144 149.262 2.87585 153.105 1.97761C155.749 1.32889 158.245 1.42869 160.59 2.27703C162.436 0.330849 164.832 -0.367778 167.776 0.181145C170.471 0.680164 172.766 2.20217 174.662 4.74717C174.762 5.09649 174.962 5.62046 175.261 6.31908C175.61 7.01771 175.935 7.79119 176.234 8.63952C178.43 13.7295 178.605 20.4164 176.758 28.7001C174.463 38.9799 170.396 47.6878 164.557 54.8238C162.761 57.0195 160.74 58.8409 158.494 60.288C154.901 63.0326 150.61 64.2552 145.619 63.9558C142.525 63.8061 139.931 63.0326 137.835 61.6354C129.501 57.4935 126.781 48.8605 129.676 35.7363C132.071 24.9575 136.388 15.9502 142.625 8.71437ZM143.524 48.4613L143.449 48.9104L143.598 49.7338C143.898 51.2807 144.397 52.4784 145.095 53.3267C145.794 54.1251 146.368 54.6242 146.817 54.8238C147.316 54.4246 147.815 54.0503 148.314 53.701C148.813 53.3517 149.262 52.9275 149.661 52.4285C153.055 48.2367 155.7 42.7475 157.596 35.9608C159.492 29.1742 160.191 22.8865 159.692 17.0979C157.746 19.593 155.7 22.4624 153.554 25.706C151.408 28.9496 149.711 31.7192 148.464 34.0147C145.619 39.3542 143.973 44.1697 143.524 48.4613Z" fill="#102429"/>
<path d="M180.327 29.2241C181.325 25.8806 182.123 23.3107 182.722 21.5142C183.371 19.6679 183.994 18.0211 184.593 16.5739C185.192 15.1268 185.866 13.7295 186.614 12.3822C187.413 11.0348 188.261 9.81222 189.159 8.71437C190.107 7.56663 191.105 6.6684 192.153 6.01967C193.201 5.37095 194.299 5.04658 195.447 5.04658C196.595 5.04658 197.792 5.4957 199.04 6.39394C201.036 11.3841 202.259 14.7276 202.708 16.4242C203.306 18.9193 203.855 22.4374 204.354 26.9785C204.803 25.8307 205.303 24.6331 205.851 23.3855C206.45 22.0881 207.024 20.7906 207.573 19.4932C209.12 16.1997 210.093 13.7046 210.492 12.0079C211.59 8.51477 213.861 5.89492 217.304 4.14835C220.298 2.65129 223.093 2.17722 225.687 2.72614C226.735 2.92575 227.459 3.34992 227.858 3.99864C228.307 4.64737 228.307 5.32105 227.858 6.01967C227.459 6.7183 227.309 7.39198 227.409 8.0407C227.559 8.63952 227.684 9.3631 227.783 10.2114C227.933 12.5069 227.534 14.5529 226.586 16.3494C225.638 18.0959 224.664 20.2916 223.666 22.9364C222.668 25.5313 221.645 28.3009 220.597 31.2451C219.599 34.1893 218.576 37.1834 217.529 40.2275C216.481 43.2715 215.458 46.041 214.46 48.5361C212.264 54.2748 210.467 57.4436 209.07 58.0424C207.174 59.1902 205.777 59.8639 204.878 60.0635C203.731 60.2631 202.109 60.2631 200.013 60.0635C198.715 59.9637 197.593 58.292 196.645 55.0483C196.096 53.3018 195.597 50.8815 195.147 47.7876C194.349 42.3982 193.8 39.429 193.501 38.8801C191.505 45.3674 190.082 49.4593 189.234 51.156C188.436 52.8526 187.812 53.9754 187.363 54.5244C186.964 55.0733 186.465 55.7969 185.866 56.6951C185.217 58.4916 183.67 59.814 181.225 60.6623C179.129 61.4607 177.233 61.5855 175.536 61.0366C173.69 60.4377 173.141 59.29 173.889 57.5933C174.438 51.6051 176.584 42.1487 180.327 29.2241Z" fill="#102429"/>
<path d="M237.58 8.71437C240.724 5.12144 244.217 2.87585 248.06 1.97761C250.705 1.32889 253.2 1.42869 255.545 2.27703C257.391 0.330849 259.787 -0.367778 262.731 0.181145C265.426 0.680164 267.721 2.20217 269.617 4.74717C269.717 5.09649 269.917 5.62046 270.216 6.31908C270.565 7.01771 270.89 7.79119 271.189 8.63952C273.385 13.7295 273.56 20.4164 271.713 28.7001C269.418 38.9799 265.351 47.6878 259.512 54.8238C257.716 57.0195 255.695 58.8409 253.449 60.288C249.856 63.0326 245.565 64.2552 240.574 63.9558C237.481 63.8061 234.886 63.0326 232.79 61.6354C224.456 57.4935 221.736 48.8605 224.631 35.7363C227.026 24.9575 231.343 15.9502 237.58 8.71437ZM238.479 48.4613L238.404 48.9104L238.553 49.7338C238.853 51.2807 239.352 52.4784 240.05 53.3267C240.749 54.1251 241.323 54.6242 241.772 54.8238C242.271 54.4246 242.77 54.0503 243.269 53.701C243.768 53.3517 244.217 52.9275 244.616 52.4285C248.01 48.2367 250.655 42.7475 252.551 35.9608C254.447 29.1742 255.146 22.8865 254.647 17.0979C252.701 19.593 250.655 22.4624 248.509 25.706C246.363 28.9496 244.666 31.7192 243.419 34.0147C240.574 39.3542 238.928 44.1697 238.479 48.4613Z" fill="#102429"/>
</svg>
