<svg width="272" height="64" viewBox="0 0 272 64" fill="none" xmlns="http://www.w3.org/2000/svg">
<path d="M26.2252 64H42.9566L47.8937 33.28H49.5395V64H69.0137V56.0457L62.5223 0H40.1223L35.2766 25.2343H33.9052L29.0595 0H6.75089L0.16803 56.0457V64H19.7337V33.28H21.288L26.2252 64Z" fill="#102429"/>
<path d="M102.474 16.0914V48H94.5194V16.0914H102.474ZM114.451 64C119.205 64 122.497 60.7086 122.497 56.0457V7.95429C122.497 3.29143 119.205 0 114.451 0H82.5423C77.788 0 74.4966 3.29143 74.4966 7.95429V56.0457C74.4966 60.7086 77.788 64 82.5423 64H114.451Z" fill="#102429"/>
<path d="M129.854 64H169.899V48H149.785V0H129.854V64Z" fill="#102429"/>
<path d="M202.474 16.0914V48H194.519V16.0914H202.474ZM214.451 64C219.205 64 222.497 60.7086 222.497 56.0457V7.95429C222.497 3.29143 219.205 0 214.451 0H182.542C177.788 0 174.497 3.29143 174.497 7.95429V56.0457C174.497 60.7086 177.788 64 182.542 64H214.451Z" fill="#102429"/>
<path d="M239.088 16.0914V64H259.111V16.0914H268.711L271.911 7.95429V0H227.111V16.0914H239.088Z" fill="#102429"/>
</svg>
