<svg width="294" height="65" viewBox="0 0 294 65" fill="none" xmlns="http://www.w3.org/2000/svg">
<path d="M57.6976 64.467C56.0802 64.7198 54.488 64.7703 52.9211 64.6187C51.4047 64.5176 49.9136 64.2649 48.4478 63.8605C46.982 63.5067 45.5414 63.0518 44.1262 62.4958C42.7109 61.9398 41.3209 61.3585 39.9562 60.752C38.9958 60.3476 38.0354 59.8927 37.0751 59.3872C36.1147 58.9323 35.1544 58.5027 34.194 58.0983C33.2842 57.694 32.3744 57.3401 31.4645 57.0369C30.5547 56.7841 29.6702 56.6578 28.8109 56.6578C27.6484 56.6578 26.2836 57.0369 24.7167 57.7951C23.1498 58.6038 21.6334 59.463 20.1676 60.3729C18.7018 61.3332 17.4382 62.1925 16.3767 62.9507C15.3153 63.7594 14.7593 64.1638 14.7087 64.1638L0 56.4303C0 56.4303 0.176909 56.2029 0.530727 55.748C0.884545 55.293 1.41527 54.7118 2.12291 54.0041C2.83054 53.2965 3.66454 52.4878 4.62491 51.578C5.63582 50.6176 6.74782 49.632 7.96091 48.6211C5.53473 46.0432 3.63927 43.1116 2.27454 39.8261C0.960363 36.5407 0.303273 33.0025 0.303273 29.2116C0.303273 25.2691 1.03618 21.5792 2.502 18.1422C4.01836 14.6545 6.06545 11.6218 8.64327 9.04398C11.2211 6.46616 14.2285 4.44434 17.6656 2.97852C21.1533 1.46216 24.8684 0.703979 28.8109 0.703979C32.7534 0.703979 36.4433 1.46216 39.8804 2.97852C43.368 4.44434 46.4007 6.46616 48.9785 9.04398C51.5563 11.6218 53.5782 14.6545 55.044 18.1422C56.5603 21.5792 57.3185 25.2691 57.3185 29.2116C57.3185 32.6992 56.5856 36.1363 55.1198 39.5229C53.7045 42.8589 51.9607 45.7652 49.8883 48.242C51.0003 48.5452 51.986 48.7727 52.8453 48.9243C53.7045 49.0254 54.5385 49.0254 55.3473 48.9243C56.156 48.8232 56.9647 48.6211 57.7734 48.3178C58.6327 47.964 59.5678 47.4838 60.5787 46.8772L71.1932 58.0225C70.1823 58.9829 69.0198 59.8927 67.7056 60.752C66.5431 61.4596 65.1278 62.1672 63.4598 62.8749C61.7918 63.5825 59.8711 64.1132 57.6976 64.467ZM41.0176 29.1358C41.0176 27.4678 40.6891 25.9009 40.032 24.4351C39.4254 22.9692 38.5914 21.7056 37.53 20.6442C36.4685 19.5827 35.2049 18.7487 33.7391 18.1422C32.2733 17.4851 30.7064 17.1565 29.0384 17.1565C27.3704 17.1565 25.8034 17.4851 24.3376 18.1422C22.8718 18.7487 21.5829 19.5827 20.4709 20.6442C19.4094 21.7056 18.5502 22.9692 17.8931 24.4351C17.2865 25.9009 16.9833 27.4678 16.9833 29.1358C16.9833 30.8038 17.2865 32.3707 17.8931 33.8365C18.5502 35.3023 19.4094 36.5912 20.4709 37.7032C21.5829 38.7647 22.8718 39.624 24.3376 40.2811C25.8034 40.8876 27.3704 41.1909 29.0384 41.1909C30.7064 41.1909 32.2733 40.8876 33.7391 40.2811C35.2049 39.624 36.4685 38.7647 37.53 37.7032C38.5914 36.5912 39.4254 35.3023 40.032 33.8365C40.6891 32.3707 41.0176 30.8038 41.0176 29.1358ZM102.885 1.76543V36.8692C102.885 39.6998 102.329 42.3787 101.217 44.906C100.105 47.3827 98.5889 49.5561 96.6682 51.4263C94.798 53.246 92.5992 54.7118 90.072 55.8238C87.5447 56.8852 84.8658 57.416 82.0352 57.416C79.2047 57.416 76.5258 56.8852 73.9985 55.8238C71.5218 54.7118 69.3231 53.246 67.4023 51.4263C65.5322 49.5561 64.0411 47.3827 62.9291 44.906C61.8171 42.3787 61.2611 39.6998 61.2611 36.8692V1.76543H77.1829V36.1111C77.1829 37.3747 77.6631 38.4867 78.6234 39.4471C79.6343 40.3569 80.7716 40.8118 82.0352 40.8118C83.3494 40.8118 84.4867 40.3569 85.4471 39.4471C86.458 38.4867 86.9634 37.3747 86.9634 36.1111V1.76543H102.885Z" fill="#102429"/>
<path d="M134.471 1.76543L151.454 56.7336H135.532L133.788 50.2132H117.184L115.516 56.7336H99.5943L116.578 1.76543H134.471ZM128.633 34.8222L125.524 22.1605L122.34 34.8222H128.633Z" fill="#102429"/>
<path d="M194.725 1.76543V56.7336H179.562L168.72 36.8692V56.7336H153.935V1.76543H169.023L178.576 23.3736V1.76543H194.725Z" fill="#102429"/>
<path d="M265.415 0.703979C269.358 0.703979 273.047 1.46216 276.485 2.97852C279.972 4.44434 283.005 6.46616 285.583 9.04398C288.161 11.6218 290.182 14.6545 291.648 18.1422C293.165 21.5792 293.923 25.2691 293.923 29.2116C293.923 33.1541 293.165 36.8692 291.648 40.3569C290.182 43.794 288.161 46.8014 285.583 49.3792C283.005 51.9571 279.972 54.0041 276.485 55.5205C273.047 56.9863 269.358 57.7192 265.415 57.7192C261.473 57.7192 257.757 56.9863 254.27 55.5205C250.833 54.0041 247.825 51.9571 245.247 49.3792C242.67 46.8014 240.623 43.794 239.106 40.3569C237.64 36.8692 236.907 33.1541 236.907 29.2116C236.907 25.2691 237.64 21.5792 239.106 18.1422C240.623 14.6545 242.67 11.6218 245.247 9.04398C247.825 6.46616 250.833 4.44434 254.27 2.97852C257.757 1.46216 261.473 0.703979 265.415 0.703979ZM277.622 29.1358C277.622 27.4678 277.293 25.9009 276.636 24.4351C276.03 22.9692 275.196 21.7056 274.134 20.6442C273.073 19.5827 271.809 18.7487 270.343 18.1422C268.877 17.4851 267.311 17.1565 265.643 17.1565C263.975 17.1565 262.408 17.4851 260.942 18.1422C259.476 18.7487 258.187 19.5827 257.075 20.6442C256.014 21.7056 255.154 22.9692 254.497 24.4351C253.891 25.9009 253.587 27.4678 253.587 29.1358C253.587 30.8038 253.891 32.3707 254.497 33.8365C255.154 35.3023 256.014 36.5912 257.075 37.7032C258.187 38.7647 259.476 39.624 260.942 40.2811C262.408 40.8876 263.975 41.1909 265.643 41.1909C267.311 41.1909 268.877 40.8876 270.343 40.2811C271.809 39.624 273.073 38.7647 274.134 37.7032C275.196 36.5912 276.03 35.3023 276.636 33.8365C277.293 32.3707 277.622 30.8038 277.622 29.1358ZM224.322 17.6872V37.8549C224.322 38.8658 224.499 39.7756 224.852 40.5843C225.206 41.3425 225.686 41.9996 226.293 42.5556C226.899 43.0611 227.582 43.4654 228.34 43.7687C229.149 44.0214 229.957 44.1478 230.766 44.1478C231.676 44.1478 232.586 44.072 233.496 43.9203C234.456 43.7687 235.442 43.238 236.453 42.3281L246.991 54.6107C244.969 56.8852 242.695 58.3763 240.168 59.084C237.64 59.8421 235.063 60.2212 232.434 60.2212C229.654 60.2212 226.899 59.7158 224.17 58.7049C221.441 57.7445 218.939 56.4051 216.664 54.6865C214.44 52.9174 212.57 50.8703 211.053 48.5452C209.588 46.1696 208.678 43.6171 208.324 40.8876V17.6872H197.33V1.76543H235.239V17.6872H224.322Z" fill="#102429"/>
</svg>
