<svg width="284" height="64" viewBox="0 0 284 64" fill="none" xmlns="http://www.w3.org/2000/svg">
<path d="M53.3438 63.3383C49.0267 63.3383 45.6392 62.6292 43.1813 61.2112C40.5344 59.7302 39.1006 57.6347 38.88 54.9247L38.4546 50.4815C41.3537 49.7883 43.7958 47.9921 45.781 45.0931C46.3167 44.2738 46.5846 43.5647 46.5846 42.966C46.5846 42.1467 46.1749 41.7371 45.3556 41.7371H45.2138C45.1823 41.7686 45.1193 41.7843 45.0247 41.7843C42.8189 46.4165 39.2424 48.7326 34.2951 48.7326C31.7741 48.7326 29.6156 48.1812 27.8194 47.0783C26.0548 45.9754 24.4319 44.0689 22.9509 41.3589H22.6673C21.8165 41.3589 21.3911 41.7213 21.3911 42.4461C21.3911 42.9503 21.5801 43.5175 21.9583 44.1477C23.2187 46.259 24.7943 47.9133 26.685 49.1108C28.1661 50.1192 29.7259 50.7179 31.3645 50.9069L30.9863 59.8405C29.0957 61.0694 27.0947 61.9517 24.9834 62.4874C22.9036 63.0547 19.9258 63.3383 16.0499 63.3383C12.2054 63.3383 8.77069 62.582 5.74558 61.0694C2.02721 59.2102 0.16803 56.6263 0.16803 53.3176C0.16803 49.1896 0.987331 38.9956 2.62593 22.7356C3.50826 14.259 4.21727 8.33481 4.75296 4.96307C7.99865 2.06401 12.7884 0.614476 19.1222 0.614476C23.7229 0.614476 27.5358 1.46529 30.5609 3.16691L33.1606 11.8641L31.5063 18.8124C31.3802 19.2851 31.3172 19.742 31.3172 20.1832C31.3172 21.2861 31.9474 21.8533 33.2079 21.8848L37.6983 3.21418C38.9903 2.52093 40.6762 1.92221 42.7559 1.41802C44.8357 0.882324 47.1045 0.614476 49.5624 0.614476C54.1631 0.614476 57.5664 1.40226 59.7722 2.97784C62.0095 4.52191 63.333 7.13737 63.7426 10.8242C63.8372 11.5175 63.979 12.6677 64.168 14.2747C67.0356 38.9168 68.4694 53.4279 68.4694 57.808C64.9716 61.4948 59.9297 63.3383 53.3438 63.3383Z" fill="#102429"/>
<path d="M102.076 29.873C102.076 26.7218 101.935 24.5633 101.651 23.3973C101.367 22.1999 100.847 21.6012 100.091 21.6012C99.6185 21.6012 99.1931 21.7587 98.815 22.0739C98.878 22.6411 98.9726 23.3973 99.0986 24.3427C99.2246 25.288 99.2877 27.3048 99.2877 30.3929V33.4653C99.2877 35.6081 99.2404 37.1679 99.1459 38.1448C99.0513 39.1216 98.9726 39.9567 98.9095 40.6499C98.878 41.0281 98.8465 41.4062 98.815 41.7843C99.1931 42.0995 99.6185 42.257 100.091 42.257C100.847 42.257 101.367 41.6741 101.651 40.5081C101.935 39.3107 102.076 37.1364 102.076 33.9852V29.873ZM100.186 64C94.5767 64 89.4246 62.8498 84.7293 60.5495C80.0656 58.2176 76.3 54.6726 73.4324 49.9143C70.5649 45.1246 69.1311 39.1531 69.1311 32C69.1311 21.6327 72.2507 13.5342 78.49 7.70458C84.0361 2.56819 91.1734 0 99.9021 0C109.387 0 116.887 2.94633 122.401 8.83899C127.947 14.7001 130.72 22.4205 130.72 32C130.72 42.6509 127.758 50.7809 121.834 56.39C116.446 61.4633 109.23 64 100.186 64Z" fill="#102429"/>
<path d="M160.924 10.4934V12.6204C159.664 15.2358 158.703 17.2841 158.041 18.7651C157.379 20.2147 157.048 21.2073 157.048 21.743C157.048 22.6568 157.568 23.1137 158.608 23.1137L167.92 2.69424C170.094 1.27622 173.056 0.567208 176.806 0.567208C180.588 0.567208 183.833 1.60709 186.543 3.68685C189.505 6.01871 190.986 9.20138 190.986 13.2349C190.986 16.6066 189.836 19.9311 187.536 23.2083C185.235 26.454 182.226 29.2742 178.508 31.6691C176.775 30.6923 175.215 30.2038 173.828 30.2038C172.442 30.2038 171.749 30.8813 171.749 32.2363C173.198 32.5199 174.506 32.9296 175.672 33.4653C176.869 33.9695 178.271 34.9621 179.879 36.4431L192.452 48.0236C191.538 58.2334 186.433 63.3383 177.137 63.3383C173.702 63.3383 170.756 62.4559 168.298 60.6913C165.399 58.643 163.13 55.5234 161.492 51.3323L157.096 40.3663H156.859C155.819 40.3663 155.299 40.8075 155.299 41.6898C155.299 42.257 155.741 43.6278 156.623 45.8021C157.505 48.1654 158.829 51.3166 160.593 55.2555V58.8951C157.285 61.8572 152.479 63.3383 146.177 63.3383C142.774 63.3383 139.859 62.5662 137.432 61.0222C134.691 59.352 133.32 56.9729 133.32 53.8848V5.10487C136.566 2.14279 141.497 0.661743 148.115 0.661743C151.55 0.661743 154.464 1.38651 156.859 2.83604C159.569 4.56918 160.924 7.12161 160.924 10.4934Z" fill="#102429"/>
<path d="M224.593 29.873C224.593 26.7218 224.452 24.5633 224.168 23.3973C223.884 22.1999 223.364 21.6012 222.608 21.6012C222.136 21.6012 221.71 21.7587 221.332 22.0739C221.395 22.6411 221.49 23.3973 221.616 24.3427C221.742 25.288 221.805 27.3048 221.805 30.3929V33.4653C221.805 35.6081 221.757 37.1679 221.663 38.1448C221.568 39.1216 221.49 39.9567 221.427 40.6499C221.395 41.0281 221.363 41.4062 221.332 41.7843C221.71 42.0995 222.136 42.257 222.608 42.257C223.364 42.257 223.884 41.6741 224.168 40.5081C224.452 39.3107 224.593 37.1364 224.593 33.9852V29.873ZM222.703 64C217.094 64 211.942 62.8498 207.246 60.5495C202.583 58.2176 198.817 54.6726 195.949 49.9143C193.082 45.1246 191.648 39.1531 191.648 32C191.648 21.6327 194.768 13.5342 201.007 7.70458C206.553 2.56819 213.69 0 222.419 0C231.904 0 239.404 2.94633 244.918 8.83899C250.464 14.7001 253.237 22.4205 253.237 32C253.237 42.6509 250.275 50.7809 244.351 56.39C238.963 61.4633 231.747 64 222.703 64Z" fill="#102429"/>
<path d="M283.441 10.0679V58.8951C281.992 60.1556 280.054 61.2112 277.627 62.062C275.201 62.9128 272.255 63.3383 268.788 63.3383C265.322 63.3383 262.376 62.5662 259.949 61.0222C257.208 59.352 255.837 56.9887 255.837 53.9321V5.10487C257.287 3.84441 259.225 2.78877 261.651 1.93796C264.077 1.08715 267.008 0.661743 270.443 0.661743C273.878 0.661743 276.855 1.41802 279.376 2.93058C282.086 4.66371 283.441 7.04284 283.441 10.0679Z" fill="#102429"/>
</svg>
